Coordinates
version=1
nRows=16
nColumns=40
inDegrees=yes

Units are S.I. units (second, meters, Newtons, ...)
Angles are in degrees.

endheader
time	pelvis_tilt	pelvis_list	pelvis_rotation	pelvis_tx	pelvis_ty	pelvis_tz	hip_flexion_r	hip_adduction_r	hip_rotation_r	knee_angle_r	knee_angle_r_beta	ankle_angle_r	subtalar_angle_r	mtp_angle_r	hip_flexion_l	hip_adduction_l	hip_rotation_l	knee_angle_l	knee_angle_l_beta	ankle_angle_l	subtalar_angle_l	mtp_angle_l	lumbar_extension	lumbar_bending	lumbar_rotation	arm_flex_r	arm_add_r	arm_rot_r	elbow_flex_r	pro_sup_r	wrist_flex_r	wrist_dev_r	arm_flex_l	arm_add_l	arm_rot_l	elbow_flex_l	pro_sup_l	wrist_flex_l	wrist_dev_l
     32.96000000	     -3.02129208	     -6.80535154	      2.10186603	      1.06655252	      0.92562741	      0.52209722	     13.93508644	      4.45101661	    -13.25189560	     21.65041935	     21.65041935	     12.07998168	     -2.80261062	     -1.22849137	     28.91268170	    -16.43777493	      2.56057799	     68.74139697	     68.74139697	      5.67844866	    -19.06690136	     15.08931938	     -9.94289329	      6.92484381	      2.49194354	      8.12636162	    -15.05448082	     -4.12323017	     46.95989196	     45.51935277	      0.00000000	      0.00000000	     15.02035337	     -7.62503570	     -1.74126128	     42.23217309	     45.64087253	      0.00000000	      0.00000000
     32.97135714	     -3.18435143	     -6.72342151	      2.34461989	      1.06431869	      0.92651231	      0.52258611	     13.08086803	      4.53541137	    -13.33034528	     20.67525352	     20.67525352	     12.11844222	     -2.61821856	     -1.50838220	     30.78857189	    -16.46531433	      2.16957571	     66.98654846	     66.98654846	      6.83975487	    -19.21337143	     16.56334703	     -9.89983416	      6.68694851	      2.40724134	     10.57051756	    -15.36638112	     -3.80638812	     49.43012221	     45.43358048	      0.00000000	      0.00000000	     14.07473399	     -7.48165964	     -1.55381234	     38.85752457	     45.64111476	      0.00000000	      0.00000000
     32.98271429	     -3.25251033	     -6.68275029	      2.60804384	      1.06221738	      0.92749989	      0.52302926	     12.03946705	      4.69667742	    -13.40558880	     19.53678967	     19.53678967	     12.20926257	     -2.41241388	     -1.43631907	     32.26234538	    -16.48917317	      1.71205952	     64.77975577	     64.77975577	      7.56413585	    -19.29996612	     17.01875875	    -10.01779152	      6.52385637	      2.06824742	     13.34529914	    -15.37420055	     -3.94052643	     51.52578738	     45.38076290	      0.00000000	      0.00000000	     12.52404433	     -7.58516940	     -1.36094958	     36.95302142	     45.60467584	      0.00000000	      0.00000000
     32.99407143	     -3.36515372	     -6.58320583	      2.84088943	      1.06006839	      0.92830987	      0.52333642	     11.09997952	      4.76346214	    -13.49588918	     18.46788757	     18.46788757	     12.08938303	     -2.18196884	     -1.99227677	     33.58437912	    -16.27937478	      1.32289980	     62.32435149	     62.32435149	      8.53175277	    -19.32608980	     18.61383368	    -10.08948907	      6.31574371	      2.36756060	     15.32450850	    -16.04435775	     -3.36268327	     54.62150320	     45.26900673	      0.00000000	      0.00000000	     12.20234848	     -7.25360236	     -0.97328672	     32.72317375	     45.59952473	      0.00000000	      0.00000000
     33.00542857	     -3.49837967	     -6.51636788	      3.09972988	      1.05801163	      0.92899520	      0.52340484	     10.16158174	      4.86258936	    -13.58379472	     17.36797825	     17.36797825	     12.17232293	     -1.90395946	     -1.96251437	     34.66666037	    -15.92651515	      1.07440212	     59.46383977	     59.46383977	      8.91627498	    -19.31182981	     18.82715158	    -10.13872472	      6.17672315	      2.15252702	     18.03163985	    -16.07454846	     -3.61708049	     56.59637308	     45.22788698	      0.00000000	      0.00000000	     10.74833614	     -7.29468011	     -0.80107975	     31.04943197	     45.56606002	      0.00000000	      0.00000000
     33.01678571	     -3.64116994	     -6.37804671	      3.31771204	      1.05600671	      0.92960979	      0.52333797	      9.23350363	      4.86921838	    -13.68999188	     16.27562556	     16.27562556	     12.21884128	     -1.53626346	     -1.94812299	     35.50302799	    -15.34660934	      0.91686482	     56.26376434	     56.26376434	      9.14842125	    -19.25313663	     18.91917954	    -10.20491503	      5.94223995	      1.97808049	     20.61164863	    -16.11121200	     -3.76004071	     58.54996259	     45.18147398	      0.00000000	      0.00000000	      9.39156426	     -7.31866297	     -0.60272197	     29.36639270	     45.52614104	      0.00000000	      0.00000000
     33.02814286	     -3.80133687	     -6.31400955	      3.54477316	      1.05402630	      0.92988929	      0.52299540	      8.34446145	      4.89524430	    -14.03582417	     15.21661030	     15.21661030	     12.14605756	     -0.86283097	     -2.62496158	     36.20618433	    -14.69750685	      0.98203841	     52.79667869	     52.79667869	      8.81387108	    -19.10943705	     17.66480975	    -10.20730751	      5.86959821	      2.30792181	     22.63516702	    -16.84014200	     -3.45747984	     61.53604516	     45.09491445	      0.00000000	      0.00000000	      8.85589953	     -7.00824927	     -0.00208406	     26.12404658	     45.46884784	      0.00000000	      0.00000000
     33.03950000	     -4.04617847	     -6.16144065	      3.74038027	      1.05209283	      0.93017298	      0.52254319	      7.52879692	      4.85471818	    -14.16871765	     14.12977447	     14.12977447	     12.17753437	     -0.48788363	     -2.56118231	     36.74193964	    -13.79817749	      1.25010512	     48.97949483	     48.97949483	      8.70309945	    -18.81796102	     17.51217207	    -10.15058369	      5.63100574	      2.18043286	     25.06696209	    -16.80637984	     -3.73840580	     63.37221801	     45.05833387	      0.00000000	      0.00000000	      7.40649127	     -7.08843094	      0.13290153	     25.13242308	     45.42914249	      0.00000000	      0.00000000
     33.05085714	     -4.26463688	     -6.16038652	      3.94678526	      1.05029196	      0.93011928	      0.52186102	      6.63405741	      4.93943149	    -14.57987524	     12.95941073	     12.95941073	     12.21199886	      0.39916316	     -2.74379229	     37.15020045	    -13.02271237	      1.71865112	     45.02017100	     45.02017100	      8.30448032	    -18.09956010	     16.16404272	    -10.13455567	      5.64735880	      2.00010136	     27.54283700	    -16.87750902	     -3.86121801	     65.82227552	     44.99932487	      0.00000000	      0.00000000	      5.92890790	     -7.06588587	      0.41728701	     24.03527483	     45.36543575	      0.00000000	      0.00000000
     33.06221429	     -4.52853008	     -6.12229199	      4.11122762	      1.04872393	      0.92982118	      0.52103865	      5.78318245	      4.95767686	    -15.09651376	     11.82613127	     11.82613127	     12.19648620	      1.50746441	     -3.23883058	     37.31251589	    -12.30418623	      2.04305952	     40.69239816	     40.69239816	      7.24233919	    -16.88034298	     12.80572944	    -10.00044861	      5.62032027	      2.24704010	     29.45646388	    -17.35841226	     -3.78037673	     68.74881539	     44.92763080	      0.00000000	      0.00000000	      4.53124900	     -7.03694809	      1.02074649	     23.29716360	     45.24776371	      0.00000000	      0.00000000
     33.07357143	     -4.70415500	     -6.13298905	      4.24520888	      1.04722577	      0.92943711	      0.52033025	      4.89547578	      5.07880098	    -15.29988901	     10.79514211	     10.79514211	     12.28537671	      2.13538167	     -3.32204230	     37.36313324	    -11.73717890	      2.34863440	     36.50795817	     36.50795817	      7.18013016	    -14.79191458	     11.99957113	     -9.97891695	      5.61209915	      2.26301309	     31.84421096	    -17.42800455	     -3.99089054	     70.74450429	     44.88804512	      0.00000000	      0.00000000	      3.00373789	     -7.04754348	      1.30654403	     22.74472717	     45.17188802	      0.00000000	      0.00000000
     33.08492857	     -4.89908824	     -6.19994634	      4.34780734	      1.04606866	      0.92871585	      0.51942704	      3.97887167	      5.22410038	    -15.72716669	      9.71824867	      9.71824867	     12.27992156	      3.19656104	     -3.88001771	     37.17937283	    -11.31012800	      2.46245835	     32.06160418	     32.06160418	      5.98644121	    -12.74191719	      8.36379274	     -9.91370401	      5.70661815	      2.57530327	     33.73780464	    -17.86821997	     -4.02606037	     73.72617212	     44.85762327	      0.00000000	      0.00000000	      1.21671362	     -7.27780933	      3.00543584	     23.15527792	     44.84909354	      0.00000000	      0.00000000
     33.09628571	     -5.05516190	     -6.34322438	      4.45952156	      1.04506750	      0.92781805	      0.51847016	      3.00281847	      5.47883460	    -16.09604094	      8.61854005	      8.61854005	     12.40866611	      4.20728572	     -3.94721357	     37.11175601	    -11.02332745	      2.47105828	     28.22355819	     28.22355819	      6.26683852	    -10.02304079	      8.65161394	     -9.78154013	      5.89236744	      2.55260139	     36.03733257	    -17.81166540	     -4.12993124	     75.64966835	     44.82158573	      0.00000000	      0.00000000	     -0.47690499	     -7.32437388	      3.38914632	     22.86509489	     44.75798037	      0.00000000	      0.00000000
     33.10764286	     -5.17941874	     -6.44210089	      4.53417104	      1.04422445	      0.92675811	      0.51739270	      2.07881510	      5.65797274	    -16.34840024	      7.72490113	      7.72490113	     12.59879941	      5.05374823	     -4.04351194	     36.91030475	    -10.71880395	      2.33482996	     24.61184012	     24.61184012	      6.37537699	     -7.78312492	      9.24767420	     -9.69652788	      6.00639214	      2.60530798	     38.25117130	    -17.82174024	     -4.21227143	     77.50086218	     44.78153553	      0.00000000	      0.00000000	     -2.11415461	     -7.35936375	      3.60830643	     22.66227312	     44.69083561	      0.00000000	      0.00000000
     33.11900000	     -5.30296792	     -6.59277817	      4.58832637	      1.04362342	      0.92544855	      0.51626175	      1.16515431	      5.88841199	    -16.62187906	      6.88323853	      6.88323853	     12.83891041	      5.91303462	     -4.15581942	     36.72728154	    -10.50887607	      1.98866192	     21.46491141	     21.46491141	      6.38467311	     -5.97221629	      9.99604789	     -9.57475014	      6.18652150	      2.69921131	     40.36353899	    -17.78699214	     -4.24889787	     79.33276412	     44.73916465	      0.00000000	      0.00000000	     -3.74596257	     -7.39278452	      3.77875744	     22.55828625	     44.62974612	      0.00000000	      0.00000000
     33.13035714	     -5.35858026	     -6.82015210	      4.66263396	      1.04327956	      0.92395476	      0.51500725	      0.14267980	      6.19235365	    -17.14229562	      5.99939818	      5.99939818	     13.09511297	      7.21246908	     -4.27217855	     36.64197819	    -10.39588686	      1.48208098	     19.11995043	     19.11995043	      6.49457474	     -4.64343569	     10.98711552	     -9.50129091	      6.47585805	      2.66805583	     42.39596921	    -17.70160110	     -4.13015349	     81.64449207	     44.68473873	      0.00000000	      0.00000000	     -5.59717002	     -7.48552677	      4.10764116	     23.06585004	     44.53520839	      0.00000000	      0.00000000
